<svg viewBox="0 0 512 512" xmlns="http://www.w3.org/2000/svg">
	<linearGradient id="coffee" gradientUnits="userSpaceOnUse" x1="40" x2="472" y1="256" y2="256">
		<stop offset="0" stop-color="#80d8ff"/>
		<stop offset="1" stop-color="#ea80fc"/>
	</linearGradient>
	<path fill="url(#coffee)" d="m452 100.013h-29.585l-64.029-91.48c-3.743-5.348-9.86-8.533-16.386-8.533h-172c-6.526 0-12.643 3.185-16.386 8.532l-64.029 91.48h-29.585c-11.046 0-20 8.954-20 20s8.954 20 20 20h22.509l5.376 40h-6.413c-12.106 0-21.432 10.682-19.821 22.664l28.494 211.987c1.334 9.928 9.806 17.337 19.822 17.337h11.789l8.423 62.664c1.334 9.927 9.805 17.336 19.821 17.336h212c10.016 0 18.487-7.409 19.821-17.336l8.423-62.664h11.789c10.016 0 18.487-7.409 19.821-17.336l28.494-211.987c1.613-11.997-7.731-22.664-19.821-22.664h-6.413l5.376-40h22.51c11.046 0 20-8.954 20-20s-8.954-20-20-20zm-271.586-60.013h151.172l42.004 60.013h-235.18zm208.718 100.014-5.376 39.999h-255.512l-5.376-39.999zm-44.623 331.986h-177.018l-5.376-40h187.77zm40.033-80c-16.941 0-246.635 0-257.084 0l-23.117-171.987h303.318z" />
</svg>