<svg viewBox="0 -26 511.99991 511" xmlns="http://www.w3.org/2000/svg">
	<linearGradient id="donate" gradientUnits="userSpaceOnUse" x1="-.000091" x2="512.0000111234" y1="230.4943490996" y2="230.4943490996">
		<stop offset="0" stop-color="#80d8ff"/>
		<stop offset="1" stop-color="#ea80fc"/>
	</linearGradient>
	<path fill="url(#donate)" d="m438.378906 318.378906c20.96875-18.121094 34.261719-44.898437 34.261719-74.722656 0-48.792969-35.386719-89.664062-82.609375-97.421875 18.347656-74.679687-30.859375-145.734375-104.609375-145.734375-42.230469 0-71.742187 18.65625-88.484375 33.417969-16.742188-14.761719-46.25-33.417969-88.476562-33.417969-91.757813 0-156.082032 114.972656-62.960938 221.328125 32.046875 36.601563 80.117188 70.214844 142.878906 99.910156 5.414063 2.5625 11.699219 2.566407 17.121094 0 28.351562-13.421875 53.847656-27.742187 76.179688-42.753906 5.828124 15.230469 15.300781 28.699219 27.742187 39.390625-43.753906 23.195312-73.632813 69.21875-73.632813 122.097656 0 11.054688 8.960938 20.015625 20.015626 20.015625h236.179687c11.054687 0 20.015625-8.960937 20.015625-20.015625 0-52.875-29.871094-98.894531-73.621094-122.09375zm-241.445312-36.949218c-67.222656-32.953126-156.929688-92.996094-156.929688-166.539063 0-39.761719 27.222656-74.359375 68.457032-74.359375 46.417968 0 70.542968 31.84375 72.113281 33.988281 7.609375 11.140625 24.457031 11.808594 32.761719-.054687.234374-.339844 24.304687-33.933594 72.085937-33.933594 49.542969 0 83 51.835938 62.082031 107.976562-38.753906 10.761719-67.992187 44.609376-71.902344 85.730469-22.039062 16.519531-48.417968 32.351563-78.667968 47.191407zm118.246094-37.773438c0-32.371094 26.339843-58.707031 58.714843-58.707031 32.523438 0 58.714844 26.300781 58.714844 58.707031 0 32.375-26.339844 58.714844-58.714844 58.714844-33.371093-.003906-58.714843-27.101563-58.714843-58.714844zm-37.304688 176.800781c9.261719-44.511719 48.796875-78.058593 96.019531-78.058593 47.222657 0 86.757813 33.546874 96.023438 78.058593zm0 0"/>
</svg>