<svg viewBox="0 0 455.28575 455" xmlns="http://www.w3.org/2000/svg">
	<path fill="#a02967" d="m244.609375 52.230469c-9.371094-9.371094-24.5625-9.371094-33.933594 0l-158.394531 158.398437c-9.367188 9.371094-9.367188 24.5625 0 33.9375l158.402344 158.398438c9.371094 9.367187 24.5625 9.367187 33.933594 0l158.402343-158.398438c9.367188-9.375 9.367188-24.566406 0-33.9375zm147.082031 180.980469-158.402344 158.402343c-3.121093 3.121094-8.1875 3.121094-11.308593 0l-158.402344-158.402343c-3.121094-3.121094-3.121094-8.1875 0-11.308594l158.402344-158.402344c3.121093-3.121094 8.1875-3.121094 11.308593 0l158.402344 158.402344c3.121094 3.121094 3.121094 8.1875 0 11.308594zm-147.082031-226.269532c-9.496094-9.0625-24.4375-9.0625-33.933594 0l-203.648437 203.6875c-9.371094 9.371094-9.371094 24.5625 0 33.9375l203.648437 203.605469c9.371094 9.371094 24.5625 9.371094 33.933594 0l203.648437-203.648437c9.371094-9.371094 9.371094-24.5625 0-33.933594zm192.335937 226.269532-203.644531 203.648437c-3.125 3.125-8.191406 3.125-11.3125 0l-203.648437-203.648437c-3.125-3.121094-3.125-8.1875 0-11.308594l203.648437-203.648438c3.121094-3.125 8.1875-3.125 11.3125 0l203.644531 203.648438c3.125 3.121094 3.125 8.1875 0 11.308594zm-210.582031-123.382813c-8.4375 0-16.507812 3.472656-22.308593 9.601563-5.800782 6.128906-8.824219 14.371093-8.363282 22.800781l5.863282 107.199219c.699218 12.738281 11.242187 22.707031 24 22.6875h1.703124c12.761719.019531 23.304688-9.949219 24-22.6875l5.863282-107.199219c.464844-8.445313-2.570313-16.703125-8.390625-22.835938-5.820313-6.132812-13.914063-9.59375-22.367188-9.566406zm8.847657 138.710937c-.234376 4.246094-3.75 7.566407-8 7.5625h-1.703126c-4.253906.003907-7.765624-3.316406-8-7.5625l-5.863281-107.191406c-.285156-5.4375 2.453125-10.585937 7.121094-13.390625 4.667969-2.804687 10.503906-2.804687 15.167969 0 4.667968 2.804688 7.410156 7.953125 7.125 13.390625zm-7.566407 39.5625c-13.257812 0-24 10.746094-24 24 0 13.253907 10.742188 24 24 24 13.253907 0 24-10.746093 24-24 0-13.253906-10.746093-24-24-24zm0 32c-4.421875 0-8-3.582031-8-8 0-4.417968 3.578125-8 8-8 4.417969 0 8 3.582032 8 8 0 4.417969-3.582031 8-8 8zm0 0"/>
</svg>